<mxfile host="app.diagrams.net" modified="2022-11-03T10:36:07.392Z" agent="5.0 (Windows NT 10.0; Win64; x64) AppleWebKit/537.36 (KHTML, like Gecko) Chrome/106.0.0.0 Safari/537.36" etag="vxyHnxjKPwgtkzrzzWUF" version="20.5.1" type="github">
  <diagram id="SpqMT6dvR783rYkQ1yZy" name="Страница 1">
    <mxGraphModel dx="853" dy="948" grid="1" gridSize="10" guides="1" tooltips="1" connect="1" arrows="1" fold="1" page="1" pageScale="1" pageWidth="827" pageHeight="1169" math="0" shadow="0">
      <root>
        <mxCell id="0" />
        <mxCell id="1" parent="0" />
        <mxCell id="n07gCbci1OqDR9Fsgq51-1" value=":ImportUnRegStatement.js" style="shape=umlLifeline;perimeter=lifelinePerimeter;whiteSpace=wrap;html=1;container=1;collapsible=0;recursiveResize=0;outlineConnect=0;" vertex="1" parent="1">
          <mxGeometry x="120" y="40" width="200" height="3450" as="geometry" />
        </mxCell>
      </root>
    </mxGraphModel>
  </diagram>
</mxfile>
